<svg width="314" height="316" viewBox="0 0 314 316" fill="none" xmlns="http://www.w3.org/2000/svg">
<g clip-path="url(#clip0_89_3180)">
<path d="M263.13 204.73C259.49 196.24 249.47 192.39 240.55 195.39C237.07 196.57 233.58 197.67 230.07 198.7V148.92C230.07 108.16 196.91 75 156.14 75C115.37 75 82.22 108.16 82.22 148.93V198.71C78.71 197.68 75.21 196.58 71.74 195.4C62.82 192.39 52.79 196.25 49.16 204.74C45.53 213.2 50.74 223.55 61.02 227.03C122.71 247.95 189.6 247.95 251.28 227.03C261.56 223.55 266.77 213.2 263.14 204.74L263.13 204.73ZM217.4 202.08C177.14 211.73 135.15 211.73 94.89 202.08V185.26H217.4V202.08Z" fill="#F5F5F2"/>
</g>
<defs>
<clipPath id="clip0_89_3180">
<rect width="216.29" height="167.71" fill="white" transform="translate(48 75)"/>
</clipPath>
</defs>
</svg>
