<svg width="771" height="241" viewBox="0 0 771 241" fill="none" xmlns="http://www.w3.org/2000/svg">
<g clip-path="url(#clip0_52_1914)">
<path d="M547.334 33.2008C556.225 50.4999 544.687 59.0581 527.575 58.6288C498.879 57.9255 532.396 25.5925 547.334 33.2008Z" fill="#354F75"/>
<path d="M770.748 33.9302C769.162 26.3036 736.197 35.8757 729.979 36.5333C723.58 37.2183 700.449 38.7619 695.002 37.5471C692.156 36.9078 689.355 36.1862 687.497 33.6836C686.836 30.6512 701.365 18.5218 686.582 17.4623C670.457 16.3023 667.067 32.5145 661.711 34.3595C652.094 37.675 632.571 29.9297 621.404 32.7702L625.184 13.8362C621.45 14.8044 613.682 13.617 610.627 15.0601C606.503 17.0238 600.884 33.1082 596.017 36.652C589.364 41.502 572.016 37.9764 578.913 51.7408C581.859 57.6137 593.442 55.9331 585.104 73.0769C583.853 75.6435 555.773 109.319 552.565 112.434C546.519 118.298 537.718 125.23 528.881 123.732C526.806 109.794 539.323 98.9525 538.126 85.1607C514.787 70.008 512.403 103.309 503.729 113.667C502.66 114.936 488.683 125.066 486.762 125.997C482.275 128.171 467.356 133.761 469.187 123.659C471.109 113.073 487.587 100.313 478.867 91.4721C470.81 83.3066 445.812 112.607 440.926 93.4906C439.739 88.8325 444.353 80.5482 439.939 74.6388C427.993 72.2275 423.334 84.8959 416.799 90.851C408.152 98.7333 394.003 112.753 385.239 118.873C371.208 128.682 351.621 136.41 337.183 146.42C333.249 143.872 335.497 143.342 335.633 141.177C336.874 121.869 349.183 106.716 359.226 90.8875C363.286 84.494 368.978 82.9869 366.477 72.5655C352.519 77.1049 345.712 63.4684 334.445 61.9978C329.759 61.3859 310.381 68.7385 306.094 71.6795C295.227 79.1325 281.35 95.8197 271.044 104.734C263.413 111.329 254.34 116.535 244.605 119.339C230.357 108.561 242.684 90.0016 241.551 75.744C220.768 53.6497 197.646 48.0051 173.781 69.6792C164.174 81.5256 148.765 91.7461 135.015 99.1626C113.244 86.8687 130.121 70.9488 130.547 54.5813C131.408 21.2892 86.8959 67.4598 85.0922 64.9937C85.9895 48.955 84.9653 27.0891 63.8921 27.5732C44.8582 28.0116 43.7524 46.7355 30.329 55.513C30.329 34.4143 45.3386 -5.81024 9.67266 0.692902C6.47315 8.74877 15.555 9.57993 16.7968 13.1603C18.9811 19.4534 7.74208 79.2056 5.25861 90.0564C2.99267 99.9389 -8.69959 117.357 12.5549 110.634C19.5522 91.2255 32.5043 72.6568 47.5139 58.5545C53.0428 53.3574 62.3512 43.4931 66.3665 52.508C70.5902 61.9887 60.892 91.947 61.6533 105.063C62.0431 111.758 65.0251 122.435 72.9377 116.288C81.2401 109.84 79.9259 101.346 82.5997 93.7555C87.9654 78.5388 103.555 63.9798 118.13 57.3945L111.459 79.1234C109.691 105.319 124.728 117.622 149.291 106.67C159.007 145.132 197.211 113.265 216.336 100.971C218.393 107.027 219.481 116.873 223.994 121.75C225.671 123.568 239.339 132.035 241.75 132.427C249.436 133.706 264.827 124.545 271.452 120.325C275.712 119.558 283.861 130.135 292.136 130.683C301.435 131.295 308.677 124.435 317.378 123.723C317.623 133.377 323.968 145.16 316.409 154.01C312.865 158.157 291.918 161.774 284.64 165.719C267.5 174.999 248.811 206.254 280.561 205.368C287.667 205.168 312.384 194.892 317.795 190.051C326.061 182.662 325.635 173.501 331.5 165.363C351.222 152.147 374.353 140.867 393.523 127.166C399.904 122.609 420.134 101.857 422.264 101.035C426.044 99.5645 428.835 113.338 434.346 113.42L455.238 112.37C450.453 140.474 463.242 149.589 489.236 137.935C493.079 136.209 503.213 127.221 506.213 129.422C507.101 130.071 506.177 139.122 516.546 139.862C536.522 141.287 552.583 127.395 566.686 115.22C569.877 112.47 583.155 97.5551 584.651 97.2171C590.044 95.9932 590.678 116.361 604.355 119.193C624.812 123.431 633.749 89.5266 644.843 91.3899C650.236 110.872 656.853 128.911 680.853 127.596C686.799 127.267 694.485 121.878 697.639 122.207C700.295 122.481 702.96 125.952 706.033 126.965C709.848 128.226 731.402 134.875 732.961 134.163C742.677 122.033 737.502 111.091 723.299 107.456C724.595 92.2667 745.233 90.714 741.019 74.8215C733.197 45.2833 690.506 59.824 686.092 87.2249C684.86 94.9063 689.509 108.324 687.715 111.045C684.878 115.347 671.871 115.74 668.49 111.566C667.838 110.762 661.602 93.2897 661.566 92.1388C661.52 90.7231 668.472 68.1722 669.632 65.0302C670.883 61.6508 676.521 49.2199 679.331 48.2426C688.884 46.288 697.984 49.9232 707.392 49.978C719.157 50.0419 739.124 49.4665 750.554 47.6946C758.376 46.4798 773.159 45.4386 770.766 33.9302H770.748ZM203.438 96.5595C196.386 102.432 176.509 114.352 167.518 112.525C159.288 102.56 170.536 104.533 173.709 99.9207C176.31 96.1485 175.222 90.2116 176.636 85.8001C181.939 69.2317 210.897 61.596 222.907 75.4151C216.172 82.0462 210.716 90.5039 203.438 96.5595ZM292.825 184.361C291.9 177.73 307.091 173.182 309.801 176.808C309.275 186.005 299.632 184.635 292.825 184.361ZM330.475 99.9389C330.131 100.158 329.75 100.35 329.342 100.523C328.935 100.697 328.509 100.843 328.055 100.971C325.808 101.638 323.07 101.967 320.596 103.017C320.097 103.227 319.617 103.465 319.146 103.739C308.786 109.849 302.577 118.955 289.018 116.151L291.175 103.145C293.731 103.355 295.861 103.446 297.656 103.428C300.792 103.391 302.885 103.017 304.345 102.332C304.762 102.14 305.124 101.921 305.45 101.674C305.777 101.428 306.058 101.163 306.311 100.871C307.191 99.8568 307.671 98.5598 308.17 97.0162C308.315 96.5778 308.46 96.1211 308.614 95.637C308.695 95.3995 308.768 95.1529 308.858 94.9063C309.112 94.1665 309.402 93.381 309.756 92.559C309.991 92.011 310.263 91.4447 310.571 90.8692C310.88 90.2847 311.224 89.691 311.623 89.0791C312.357 87.9465 313.608 86.7682 315.185 85.6448C316.236 84.8959 317.442 84.1743 318.738 83.5075C320.034 82.8408 321.43 82.2288 322.862 81.7174C325.01 80.941 327.267 80.3656 329.424 80.0916C330.149 80.0002 330.856 79.9454 331.554 79.9363C332.252 79.9272 332.932 79.9363 333.593 80.0094C334.581 80.1098 335.524 80.3016 336.385 80.6031C337.255 80.9045 338.044 81.3155 338.742 81.8544C339.204 82.2106 339.63 82.6216 340.001 83.0965C340.029 83.1787 340.038 83.2609 340.047 83.3614C340.083 83.9551 339.82 84.8867 339.367 86.0193C339.295 86.2111 339.213 86.4029 339.122 86.6038C338.95 87.0057 338.751 87.4167 338.542 87.8552C338.334 88.2844 338.107 88.732 337.862 89.1887C337.627 89.6453 337.373 90.102 337.11 90.5678C334.754 94.7602 331.654 99.1991 330.475 99.9481V99.9389ZM648.84 66.8204C647.317 70.1724 632.036 83.334 628.003 87.709C621.214 95.0616 609.893 118.097 603.431 93.4815C601.274 85.2612 607.247 53.467 612.866 47.8864C618.848 41.9404 641.616 45.128 649.747 46.0597C645.505 52.7363 651.269 61.4955 648.849 66.8295L648.84 66.8204ZM724.441 73.1683C735.571 81.4342 715.975 93.7463 709.223 99.053C700.467 88.2205 712.54 73.9629 724.441 73.1683Z" fill="#354F75"/>
<path d="M367.889 174.133H374.043V240.187H367.889V174.133Z" fill="#354F75"/>
<path d="M385.69 174.133H390.141L411.014 225.427V174.133H416.353V240.187H411.984L391.029 188.326V240.187H385.69V174.133Z" fill="#354F75"/>
<path d="M425.344 223.062L430.764 221.427C431.653 229.583 433.755 235.94 441.768 235.94C447.596 235.94 450.995 233.09 450.995 226.395C450.995 220.522 447.922 216.851 442.982 212.129L431.408 200.958C427.202 196.958 425.417 192.802 425.417 187.669C425.417 178.535 431.326 173.484 440.227 173.484C449.699 173.484 455.037 178.051 455.925 190.199L450.668 191.587C450.025 183.266 447.759 178.38 440.227 178.38C434.807 178.38 431 181.157 431 187.103C431 190.692 432.215 193.46 435.614 196.729L447.188 207.735C452.282 212.631 456.741 218.504 456.741 226.003C456.741 235.867 450.514 241.009 441.686 241.009C431 241.009 426.069 233.83 425.335 223.071L425.344 223.062Z" fill="#354F75"/>
<path d="M465.152 174.133H471.307V240.187H465.152V174.133Z" fill="#354F75"/>
<path d="M482.954 174.133H497.193C510.788 174.133 514.994 181.878 514.994 193.542V219.801C514.994 232.113 510.87 240.187 497.755 240.187H482.945V174.133H482.954ZM497.356 235.538C507.716 235.538 508.686 228.441 508.686 218.824V194.199C508.686 184.335 506.909 178.946 497.111 178.946H489.099V235.538H497.356Z" fill="#354F75"/>
<path d="M525.037 174.133H548.747V178.946H531.272V203.735H545.512V208.302H531.272V235.538H548.911V240.187H525.037V174.133Z" fill="#354F75"/>
<path d="M573.745 174.133H579.972V203.406H600.61V174.133H606.765V240.187H600.61V208.055H579.972V240.187H573.745V174.133Z" fill="#354F75"/>
<path d="M616.88 220.696V193.295C616.88 181.312 621.004 173.484 633.793 173.484C646.582 173.484 650.543 181.394 650.543 193.295V220.778C650.543 232.679 646.654 241 633.793 241C620.931 241 616.88 232.679 616.88 220.696ZM644.307 222.084V192.163C644.307 183.76 642.367 178.462 633.784 178.462C625.2 178.462 623.098 183.76 623.098 192.163V222.084C623.098 230.405 625.037 236.031 633.784 236.031C642.53 236.031 644.307 230.405 644.307 222.084Z" fill="#354F75"/>
<path d="M661.782 174.133H667.936L680.879 231.455L694.067 174.133H700.221L701.844 240.187H696.75L695.454 187.596L682.909 240.187H678.939L666.558 187.669L665.262 240.187H660.168L661.791 174.133H661.782Z" fill="#354F75"/>
<path d="M712.684 174.133H736.395V178.946H718.92V203.735H733.159V208.302H718.92V235.538H736.558V240.187H712.684V174.133Z" fill="#354F75"/>
</g>
<defs>
<clipPath id="clip0_52_1914">
<rect width="771" height="241" fill="white"/>
</clipPath>
</defs>
</svg>
